<svg id="visual" viewBox="0 0 900 450" width="900" height="450" xmlns="http://www.w3.org/2000/svg" xmlns:xlink="http://www.w3.org/1999/xlink" version="1.1"><path d="M0 303L10.7 306.3C21.3 309.7 42.7 316.3 64.2 321.7C85.7 327 107.3 331 128.8 329.8C150.3 328.7 171.7 322.3 193 323.7C214.3 325 235.7 334 257 332.7C278.3 331.3 299.7 319.7 321.2 322C342.7 324.3 364.3 340.7 385.8 343.7C407.3 346.7 428.7 336.3 450 329.8C471.3 323.3 492.7 320.7 514.2 318.7C535.7 316.7 557.3 315.3 578.8 317.2C600.3 319 621.7 324 643 332C664.3 340 685.7 351 707 349.3C728.3 347.7 749.7 333.3 771.2 326.3C792.7 319.3 814.3 319.7 835.8 320.3C857.3 321 878.7 322 889.3 322.5L900 323L900 451L889.3 451C878.7 451 857.3 451 835.8 451C814.3 451 792.7 451 771.2 451C749.7 451 728.3 451 707 451C685.7 451 664.3 451 643 451C621.7 451 600.3 451 578.8 451C557.3 451 535.7 451 514.2 451C492.7 451 471.3 451 450 451C428.7 451 407.3 451 385.8 451C364.3 451 342.7 451 321.2 451C299.7 451 278.3 451 257 451C235.7 451 214.3 451 193 451C171.7 451 150.3 451 128.8 451C107.3 451 85.7 451 64.2 451C42.7 451 21.3 451 10.7 451L0 451Z" fill="#289bdd"></path><path d="M0 354L10.7 352.3C21.3 350.7 42.7 347.3 64.2 348.2C85.7 349 107.3 354 128.8 357.2C150.3 360.3 171.7 361.7 193 358.7C214.3 355.7 235.7 348.3 257 343.3C278.3 338.3 299.7 335.7 321.2 342.2C342.7 348.7 364.3 364.3 385.8 365.2C407.3 366 428.7 352 450 349.2C471.3 346.3 492.7 354.7 514.2 356C535.7 357.3 557.3 351.7 578.8 346.5C600.3 341.3 621.7 336.7 643 342C664.3 347.3 685.7 362.7 707 366.2C728.3 369.7 749.7 361.3 771.2 358C792.7 354.7 814.3 356.3 835.8 355.7C857.3 355 878.7 352 889.3 350.5L900 349L900 451L889.3 451C878.7 451 857.3 451 835.8 451C814.3 451 792.7 451 771.2 451C749.7 451 728.3 451 707 451C685.7 451 664.3 451 643 451C621.7 451 600.3 451 578.8 451C557.3 451 535.7 451 514.2 451C492.7 451 471.3 451 450 451C428.7 451 407.3 451 385.8 451C364.3 451 342.7 451 321.2 451C299.7 451 278.3 451 257 451C235.7 451 214.3 451 193 451C171.7 451 150.3 451 128.8 451C107.3 451 85.7 451 64.2 451C42.7 451 21.3 451 10.7 451L0 451Z" fill="#007bda"></path><path d="M0 376L10.7 375.2C21.3 374.3 42.7 372.7 64.2 371.5C85.7 370.3 107.3 369.7 128.8 369C150.3 368.3 171.7 367.7 193 373.7C214.3 379.7 235.7 392.3 257 394.7C278.3 397 299.7 389 321.2 387.7C342.7 386.3 364.3 391.7 385.8 391.3C407.3 391 428.7 385 450 380.2C471.3 375.3 492.7 371.7 514.2 370.5C535.7 369.3 557.3 370.7 578.8 376.7C600.3 382.7 621.7 393.3 643 397.3C664.3 401.3 685.7 398.7 707 396.7C728.3 394.7 749.7 393.3 771.2 395C792.7 396.7 814.3 401.3 835.8 400.7C857.3 400 878.7 394 889.3 391L900 388L900 451L889.3 451C878.7 451 857.3 451 835.8 451C814.3 451 792.7 451 771.2 451C749.7 451 728.3 451 707 451C685.7 451 664.3 451 643 451C621.7 451 600.3 451 578.8 451C557.3 451 535.7 451 514.2 451C492.7 451 471.3 451 450 451C428.7 451 407.3 451 385.8 451C364.3 451 342.7 451 321.2 451C299.7 451 278.3 451 257 451C235.7 451 214.3 451 193 451C171.7 451 150.3 451 128.8 451C107.3 451 85.7 451 64.2 451C42.7 451 21.3 451 10.7 451L0 451Z" fill="#0456cd"></path><path d="M0 410L10.7 410.2C21.3 410.3 42.7 410.7 64.2 413.3C85.7 416 107.3 421 128.8 424C150.3 427 171.7 428 193 425.2C214.3 422.3 235.7 415.7 257 410.5C278.3 405.3 299.7 401.7 321.2 403.2C342.7 404.7 364.3 411.3 385.8 415.7C407.3 420 428.7 422 450 422.5C471.3 423 492.7 422 514.2 419.8C535.7 417.7 557.3 414.3 578.8 413.2C600.3 412 621.7 413 643 415C664.3 417 685.7 420 707 417.8C728.3 415.7 749.7 408.3 771.2 404C792.7 399.7 814.3 398.3 835.8 402.8C857.3 407.3 878.7 417.7 889.3 422.8L900 428L900 451L889.3 451C878.7 451 857.3 451 835.8 451C814.3 451 792.7 451 771.2 451C749.7 451 728.3 451 707 451C685.7 451 664.3 451 643 451C621.7 451 600.3 451 578.8 451C557.3 451 535.7 451 514.2 451C492.7 451 471.3 451 450 451C428.7 451 407.3 451 385.8 451C364.3 451 342.7 451 321.2 451C299.7 451 278.3 451 257 451C235.7 451 214.3 451 193 451C171.7 451 150.3 451 128.8 451C107.3 451 85.7 451 64.2 451C42.7 451 21.3 451 10.7 451L0 451Z" fill="#3028b6"></path></svg>